<svg xmlns="http://www.w3.org/2000/svg" width="111" height="32" fill="none" viewBox="0 0 111 32">
  <g clip-path="url(#a)">
    <path fill="#2A3240" d="M43.264 19V4.455h5.739c1.098 0 2.036.196 2.812.589.782.388 1.376.94 1.783 1.655.412.71.618 1.546.618 2.507 0 .966-.208 1.797-.625 2.493-.417.691-1.02 1.222-1.811 1.59-.786.37-1.738.555-2.855.555h-3.843v-2.472h3.346c.587 0 1.074-.08 1.463-.241.388-.161.677-.403.866-.725.194-.322.291-.722.291-1.2 0-.483-.097-.89-.29-1.222-.19-.331-.482-.582-.875-.752-.388-.176-.878-.263-1.47-.263H46.34V19h-3.076Zm7.855-6.62L54.734 19H51.34l-3.536-6.62h3.316ZM56.332 19V8.09h3.026V19h-3.026Zm1.52-12.315c-.45 0-.835-.15-1.157-.448a1.45 1.45 0 0 1-.476-1.086c0-.417.158-.775.476-1.073a1.63 1.63 0 0 1 1.157-.454c.45 0 .834.151 1.15.454.323.298.484.656.484 1.073 0 .421-.161.783-.483 1.086-.317.299-.7.448-1.15.448ZM61.838 19V4.455h3.026v5.468h.092c.133-.293.325-.592.576-.895.255-.307.587-.563.994-.767.412-.208.923-.312 1.534-.312a4.1 4.1 0 0 1 2.202.625c.672.412 1.21 1.034 1.612 1.868.402.828.604 1.868.604 3.118 0 1.216-.197 2.244-.59 3.082-.388.833-.918 1.466-1.59 1.896a4.084 4.084 0 0 1-2.245.64c-.587 0-1.087-.098-1.499-.292a3.1 3.1 0 0 1-1.001-.731 3.714 3.714 0 0 1-.597-.902h-.135V19h-2.983Zm2.962-5.454c0 .648.09 1.214.27 1.697.18.483.44.86.781 1.13.341.264.755.397 1.243.397.493 0 .91-.135 1.25-.405.341-.275.6-.653.774-1.136.18-.488.27-1.05.27-1.683 0-.63-.088-1.184-.263-1.662-.175-.479-.433-.853-.774-1.123-.34-.27-.76-.404-1.257-.404-.492 0-.909.13-1.25.39-.336.26-.594.63-.774 1.108-.18.478-.27 1.042-.27 1.69ZM74.553 19V4.455h3.026v5.468h.092a4 4 0 0 1 .575-.895c.256-.307.588-.563.995-.767.412-.208.923-.312 1.534-.312a4.1 4.1 0 0 1 2.202.625c.672.412 1.21 1.034 1.612 1.868.402.828.603 1.868.603 3.118 0 1.216-.196 2.244-.589 3.082-.388.833-.919 1.466-1.59 1.896a4.084 4.084 0 0 1-2.245.64c-.587 0-1.087-.098-1.499-.292a3.1 3.1 0 0 1-1.001-.731 3.711 3.711 0 0 1-.597-.902h-.135V19h-2.983Zm2.962-5.454c0 .648.09 1.214.27 1.697.18.483.44.86.781 1.13.341.264.755.397 1.243.397.492 0 .909-.135 1.25-.405.34-.275.599-.653.774-1.136.18-.488.27-1.05.27-1.683 0-.63-.088-1.184-.263-1.662-.175-.479-.433-.853-.774-1.123-.34-.27-.76-.404-1.257-.404-.492 0-.91.13-1.25.39-.336.26-.594.63-.774 1.108-.18.478-.27 1.042-.27 1.69Zm14.625 5.667c-1.103 0-2.057-.234-2.862-.703a4.81 4.81 0 0 1-1.854-1.975c-.435-.847-.653-1.83-.653-2.947 0-1.127.218-2.112.653-2.954a4.754 4.754 0 0 1 1.854-1.975c.805-.473 1.76-.71 2.862-.71 1.103 0 2.055.237 2.855.71a4.741 4.741 0 0 1 1.861 1.974c.436.843.654 1.828.654 2.955 0 1.118-.218 2.1-.654 2.947a4.797 4.797 0 0 1-1.86 1.975c-.8.469-1.752.703-2.856.703Zm.014-2.344c.502 0 .921-.142 1.258-.426.336-.289.59-.682.76-1.179.175-.497.262-1.063.262-1.697 0-.635-.087-1.2-.263-1.698-.17-.497-.423-.89-.76-1.179-.336-.288-.755-.433-1.257-.433-.506 0-.932.145-1.278.433-.34.29-.599.682-.774 1.18-.17.497-.256 1.062-.256 1.697 0 .634.085 1.2.256 1.697.175.497.433.89.774 1.18.346.283.772.425 1.278.425Zm10.348-4.176V19h-3.025V8.09h2.883v1.926h.128a3.048 3.048 0 0 1 1.215-1.506c.568-.374 1.257-.561 2.067-.561.757 0 1.418.166 1.981.497a3.38 3.38 0 0 1 1.314 1.42c.312.611.469 1.34.469 2.188V19h-3.026v-6.406c.005-.668-.166-1.189-.511-1.563-.346-.379-.822-.568-1.428-.568a2.17 2.17 0 0 0-1.079.263 1.83 1.83 0 0 0-.725.767c-.17.331-.258.731-.263 1.2ZM73.003 29l-1.662-5.454h.88l1.18 4.176h.056l1.165-4.177h.895l1.15 4.162h.057l1.18-4.162h.88L77.122 29h-.824l-1.193-4.19h-.085L73.827 29h-.824Zm6.889 0v-5.454h.81v.823h.056c.1-.27.28-.489.54-.657.26-.168.554-.252.881-.252a9.16 9.16 0 0 1 .44.014v.853a2.478 2.478 0 0 0-.195-.032 1.93 1.93 0 0 0-.316-.025c-.265 0-.502.056-.71.167a1.225 1.225 0 0 0-.668 1.111V29h-.838Zm5.326.128c-.346 0-.66-.065-.941-.195a1.615 1.615 0 0 1-.671-.572c-.166-.251-.249-.554-.249-.91 0-.312.062-.565.185-.76a1.29 1.29 0 0 1 .493-.46 2.6 2.6 0 0 1 .682-.25c.251-.056.503-.101.757-.134.331-.043.6-.075.806-.096.208-.024.36-.063.454-.117.097-.055.146-.15.146-.285v-.028c0-.35-.096-.623-.288-.817-.19-.194-.477-.29-.863-.29-.4 0-.714.087-.94.262a1.553 1.553 0 0 0-.48.56l-.796-.283a1.9 1.9 0 0 1 .569-.774c.239-.187.499-.317.78-.39.285-.077.564-.115.839-.115.175 0 .376.022.604.064.23.04.45.125.664.253.215.127.394.32.536.578.142.258.213.604.213 1.037V29h-.838v-.739h-.043a1.475 1.475 0 0 1-.284.38 1.64 1.64 0 0 1-.529.345c-.22.095-.489.142-.806.142Zm.128-.753c.331 0 .61-.065.838-.195a1.33 1.33 0 0 0 .696-1.154v-.767c-.036.042-.114.081-.235.117a3.957 3.957 0 0 1-.411.088 18.409 18.409 0 0 1-.803.107 3.203 3.203 0 0 0-.61.138 1.053 1.053 0 0 0-.455.281c-.114.123-.17.291-.17.504 0 .291.107.512.322.66.218.148.494.221.828.221Zm3.901 2.67v-7.5h.81v.867h.1a7.52 7.52 0 0 1 .255-.362 1.5 1.5 0 0 1 .476-.398c.209-.118.49-.178.845-.178.46 0 .864.115 1.215.345.35.23.624.555.82.977.197.42.295.918.295 1.49 0 .579-.098 1.08-.295 1.503a2.325 2.325 0 0 1-.817.98c-.348.23-.749.345-1.203.345-.35 0-.631-.058-.842-.174a1.559 1.559 0 0 1-.487-.402 5.407 5.407 0 0 1-.262-.376h-.071v2.884h-.838Zm.824-4.772c0 .412.06.775.181 1.09.121.312.298.558.53.735.232.175.516.263.852.263.35 0 .643-.093.877-.277.237-.187.414-.438.533-.753.12-.317.18-.67.18-1.058 0-.384-.058-.73-.177-1.037a1.602 1.602 0 0 0-.529-.735c-.234-.183-.529-.274-.884-.274-.341 0-.627.087-.86.26a1.56 1.56 0 0 0-.525.717 2.95 2.95 0 0 0-.178 1.069Zm5.27 4.773v-7.5h.81v.866h.1c.06-.095.146-.215.255-.362a1.5 1.5 0 0 1 .476-.398c.208-.118.49-.178.845-.178.46 0 .864.115 1.215.345.35.23.623.555.82.977.196.42.295.918.295 1.49 0 .579-.099 1.08-.295 1.503a2.326 2.326 0 0 1-.817.98c-.348.23-.75.345-1.204.345-.35 0-.63-.058-.841-.174a1.56 1.56 0 0 1-.487-.402 5.366 5.366 0 0 1-.263-.376h-.07v2.884h-.839Zm.824-4.773c0 .412.06.775.181 1.09.121.312.297.558.53.735.231.175.515.263.852.263.35 0 .642-.093.877-.277.236-.187.414-.438.532-.753.121-.317.181-.67.181-1.058 0-.384-.059-.73-.177-1.037a1.603 1.603 0 0 0-.53-.735c-.234-.183-.528-.274-.883-.274-.341 0-.628.087-.86.26-.232.17-.407.41-.525.717a2.948 2.948 0 0 0-.178 1.069Zm7.557 2.84c-.526 0-.979-.115-1.36-.347a2.335 2.335 0 0 1-.877-.98c-.204-.422-.306-.912-.306-1.47 0-.56.102-1.052.306-1.478a2.41 2.41 0 0 1 .859-1.001c.369-.242.8-.363 1.293-.363.284 0 .564.048.841.142.277.095.529.25.757.462.227.21.408.49.543.838.135.348.202.777.202 1.286v.355h-4.204v-.725h3.352a1.79 1.79 0 0 0-.184-.823 1.394 1.394 0 0 0-.519-.572 1.45 1.45 0 0 0-.788-.21c-.334 0-.623.083-.867.249a1.635 1.635 0 0 0-.557.64 1.88 1.88 0 0 0-.196.844v.483c0 .412.071.761.213 1.048.145.284.345.5.601.65.255.146.552.22.891.22.22 0 .419-.031.597-.093.179-.064.335-.158.465-.284a1.29 1.29 0 0 0 .302-.476l.809.228a1.794 1.794 0 0 1-.429.724c-.202.206-.45.367-.746.483a2.76 2.76 0 0 1-.998.17Zm3.533-.113v-5.454h.81v.823h.057c.099-.27.279-.489.54-.657.26-.168.554-.252.88-.252a9.12 9.12 0 0 1 .441.014v.853a2.554 2.554 0 0 0-.196-.032 1.92 1.92 0 0 0-.316-.025c-.265 0-.502.056-.71.167a1.229 1.229 0 0 0-.668 1.111V29h-.838Z"/>
    <path fill="#DF7753" d="M0 0h32v32H0z"/>
    <path fill="#F0F2FA" d="m18.257 15.447-1.747 3.495a.562.562 0 0 1-1.016-.021l-2-4.44L12.438 17H9.13l6.415 6.556c.25.257.654.257.904 0L22.869 17h-3.836l-.777-1.554Zm5.396-5.972-.084-.088a4.605 4.605 0 0 0-6.588 0L16 10.392l-.98-1.002a4.6 4.6 0 0 0-6.589 0l-.084.085c-1.712 1.75-1.786 4.538-.257 6.401h3.6l1.262-3.03a.564.564 0 0 1 1.034-.014l2.046 4.545 1.722-3.441a.562.562 0 0 1 1.006 0l.97 1.94h4.18c1.529-1.863 1.455-4.65-.257-6.401Z"/>
  </g>
  <defs>
    <clipPath id="a">
      <path fill="#fff" d="M0 0h111v32H0z"/>
    </clipPath>
  </defs>
</svg>
