<svg xmlns="http://www.w3.org/2000/svg" width="32" height="32" fill="none" viewBox="0 0 32 32">
  <path fill="#DF7753" d="M0 0h32v32H0z"/>
  <path fill="#F0F2FA" d="m18.257 15.447-1.747 3.495a.562.562 0 0 1-1.016-.021l-2-4.44L12.438 17H9.13l6.415 6.556c.25.257.654.257.904 0L22.869 17h-3.836l-.777-1.554Zm5.396-5.972-.084-.088a4.605 4.605 0 0 0-6.588 0L16 10.392l-.98-1.002a4.6 4.6 0 0 0-6.589 0l-.084.085c-1.712 1.75-1.786 4.538-.257 6.401h3.6l1.262-3.03a.564.564 0 0 1 1.034-.014l2.046 4.545 1.722-3.441a.562.562 0 0 1 1.006 0l.97 1.94h4.18c1.529-1.863 1.455-4.65-.257-6.401Z"/>
</svg>
